<mxfile host="app.diagrams.net" agent="Mozilla/5.0 (Windows NT 10.0; Win64; x64) AppleWebKit/537.36 (KHTML, like Gecko) Chrome/126.0.0.0 Safari/537.36" version="24.7.5">
  <diagram id="C5RBs43oDa-KdzZeNtuy" name="Page-1">
    <mxGraphModel dx="1235" dy="655" grid="1" gridSize="10" guides="1" tooltips="1" connect="1" arrows="1" fold="1" page="1" pageScale="1" pageWidth="827" pageHeight="1169" background="none" math="0" shadow="0">
      <root>
        <mxCell id="WIyWlLk6GJQsqaUBKTNV-0" />
        <mxCell id="WIyWlLk6GJQsqaUBKTNV-1" parent="WIyWlLk6GJQsqaUBKTNV-0" />
        <mxCell id="HFHsffIfDSOll9k_3SCo-142" value="" style="shape=folder;fontStyle=1;spacingTop=10;tabWidth=40;tabHeight=14;tabPosition=left;html=1;whiteSpace=wrap;fillColor=#dae8fc;strokeColor=#6c8ebf;" parent="WIyWlLk6GJQsqaUBKTNV-1" vertex="1">
          <mxGeometry x="218" y="259" width="490" height="526" as="geometry" />
        </mxCell>
        <mxCell id="HFHsffIfDSOll9k_3SCo-143" value="" style="shape=folder;fontStyle=1;spacingTop=10;tabWidth=40;tabHeight=14;tabPosition=left;html=1;whiteSpace=wrap;fillColor=#d5e8d4;strokeColor=#82b366;" parent="WIyWlLk6GJQsqaUBKTNV-1" vertex="1">
          <mxGeometry x="860" y="306" width="540" height="320" as="geometry" />
        </mxCell>
        <mxCell id="HFHsffIfDSOll9k_3SCo-144" value="Carro" style="swimlane;fontStyle=1;align=center;verticalAlign=top;childLayout=stackLayout;horizontal=1;startSize=26;horizontalStack=0;resizeParent=1;resizeLast=0;collapsible=1;marginBottom=0;rounded=0;shadow=0;strokeWidth=1;fillColor=#fff2cc;strokeColor=#d6b656;" parent="WIyWlLk6GJQsqaUBKTNV-1" vertex="1">
          <mxGeometry x="228" y="660" width="138" height="112" as="geometry">
            <mxRectangle x="130" y="380" width="160" height="26" as="alternateBounds" />
          </mxGeometry>
        </mxCell>
        <mxCell id="HFHsffIfDSOll9k_3SCo-145" value="- portas: int" style="text;align=left;verticalAlign=top;spacingLeft=4;spacingRight=4;overflow=hidden;rotatable=0;points=[[0,0.5],[1,0.5]];portConstraint=eastwest;rounded=0;shadow=0;html=0;fillColor=#fff2cc;strokeColor=#d6b656;fontStyle=1;fontSize=11;" parent="HFHsffIfDSOll9k_3SCo-144" vertex="1">
          <mxGeometry y="26" width="138" height="26" as="geometry" />
        </mxCell>
        <mxCell id="HFHsffIfDSOll9k_3SCo-146" value="" style="line;html=1;strokeWidth=1;align=left;verticalAlign=middle;spacingTop=-1;spacingLeft=3;spacingRight=3;rotatable=0;labelPosition=right;points=[];portConstraint=eastwest;fillColor=#fff2cc;strokeColor=#d6b656;fontStyle=1;fontSize=11;" parent="HFHsffIfDSOll9k_3SCo-144" vertex="1">
          <mxGeometry y="52" width="138" height="8" as="geometry" />
        </mxCell>
        <mxCell id="HFHsffIfDSOll9k_3SCo-147" value="+ informacao(): String" style="text;align=left;verticalAlign=top;spacingLeft=4;spacingRight=4;overflow=hidden;rotatable=0;points=[[0,0.5],[1,0.5]];portConstraint=eastwest;fillColor=#fff2cc;strokeColor=#d6b656;fontStyle=1;fontSize=11;" parent="HFHsffIfDSOll9k_3SCo-144" vertex="1">
          <mxGeometry y="60" width="138" height="26" as="geometry" />
        </mxCell>
        <mxCell id="LRiYl04Xl2Js4U6MRnPi-2" value="+ portas(valor: int): void" style="text;align=left;verticalAlign=top;spacingLeft=4;spacingRight=4;overflow=hidden;rotatable=0;points=[[0,0.5],[1,0.5]];portConstraint=eastwest;fillColor=#fff2cc;strokeColor=#d6b656;fontStyle=1;fontSize=11;" vertex="1" parent="HFHsffIfDSOll9k_3SCo-144">
          <mxGeometry y="86" width="138" height="26" as="geometry" />
        </mxCell>
        <mxCell id="HFHsffIfDSOll9k_3SCo-148" value="" style="endArrow=block;endSize=10;endFill=0;shadow=0;strokeWidth=1;rounded=0;curved=0;edgeStyle=elbowEdgeStyle;elbow=vertical;entryX=0.5;entryY=1;entryDx=0;entryDy=0;exitX=0.445;exitY=-0.004;exitDx=0;exitDy=0;exitPerimeter=0;" parent="WIyWlLk6GJQsqaUBKTNV-1" source="HFHsffIfDSOll9k_3SCo-144" edge="1">
          <mxGeometry width="160" relative="1" as="geometry">
            <mxPoint x="304.25" y="679.9999999999999" as="sourcePoint" />
            <mxPoint x="452" y="566" as="targetPoint" />
          </mxGeometry>
        </mxCell>
        <mxCell id="HFHsffIfDSOll9k_3SCo-149" value="" style="endArrow=block;endSize=10;endFill=0;shadow=0;strokeWidth=1;rounded=0;curved=0;edgeStyle=elbowEdgeStyle;elbow=vertical;exitX=0.462;exitY=0.008;exitDx=0;exitDy=0;exitPerimeter=0;entryX=0.5;entryY=1;entryDx=0;entryDy=0;" parent="WIyWlLk6GJQsqaUBKTNV-1" edge="1">
          <mxGeometry width="160" relative="1" as="geometry">
            <mxPoint x="448.7209999999999" y="680.896" as="sourcePoint" />
            <mxPoint x="452" y="566" as="targetPoint" />
            <Array as="points">
              <mxPoint x="465" y="680" />
            </Array>
          </mxGeometry>
        </mxCell>
        <mxCell id="HFHsffIfDSOll9k_3SCo-150" value="Caminhao" style="swimlane;fontStyle=1;align=center;verticalAlign=top;childLayout=stackLayout;horizontal=1;startSize=26;horizontalStack=0;resizeParent=1;resizeLast=0;collapsible=1;marginBottom=0;rounded=0;shadow=0;strokeWidth=1;fillColor=#fff2cc;strokeColor=#d6b656;" parent="WIyWlLk6GJQsqaUBKTNV-1" vertex="1">
          <mxGeometry x="541.5" y="661" width="156" height="112" as="geometry">
            <mxRectangle x="550" y="140" width="160" height="26" as="alternateBounds" />
          </mxGeometry>
        </mxCell>
        <mxCell id="HFHsffIfDSOll9k_3SCo-151" value="- capacidade_de_carga: int" style="text;align=left;verticalAlign=top;spacingLeft=4;spacingRight=4;overflow=hidden;rotatable=0;points=[[0,0.5],[1,0.5]];portConstraint=eastwest;rounded=0;shadow=0;html=0;fillColor=#fff2cc;strokeColor=#d6b656;fontStyle=1;fontSize=11;" parent="HFHsffIfDSOll9k_3SCo-150" vertex="1">
          <mxGeometry y="26" width="156" height="26" as="geometry" />
        </mxCell>
        <mxCell id="HFHsffIfDSOll9k_3SCo-152" value="" style="line;html=1;strokeWidth=1;align=left;verticalAlign=middle;spacingTop=-1;spacingLeft=3;spacingRight=3;rotatable=0;labelPosition=right;points=[];portConstraint=eastwest;fillColor=#fff2cc;strokeColor=#d6b656;fontStyle=1;fontSize=11;" parent="HFHsffIfDSOll9k_3SCo-150" vertex="1">
          <mxGeometry y="52" width="156" height="8" as="geometry" />
        </mxCell>
        <mxCell id="HFHsffIfDSOll9k_3SCo-153" value="+ informacao(): String" style="text;align=left;verticalAlign=top;spacingLeft=4;spacingRight=4;overflow=hidden;rotatable=0;points=[[0,0.5],[1,0.5]];portConstraint=eastwest;fillColor=#fff2cc;strokeColor=#d6b656;fontStyle=1;fontSize=11;" parent="HFHsffIfDSOll9k_3SCo-150" vertex="1">
          <mxGeometry y="60" width="156" height="26" as="geometry" />
        </mxCell>
        <mxCell id="LRiYl04Xl2Js4U6MRnPi-4" value="+ carga(valor: int): void" style="text;align=left;verticalAlign=top;spacingLeft=4;spacingRight=4;overflow=hidden;rotatable=0;points=[[0,0.5],[1,0.5]];portConstraint=eastwest;fillColor=#fff2cc;strokeColor=#d6b656;fontStyle=1;fontSize=11;" vertex="1" parent="HFHsffIfDSOll9k_3SCo-150">
          <mxGeometry y="86" width="156" height="26" as="geometry" />
        </mxCell>
        <mxCell id="HFHsffIfDSOll9k_3SCo-154" value="" style="endArrow=block;endSize=10;endFill=0;shadow=0;strokeWidth=1;rounded=0;curved=0;edgeStyle=elbowEdgeStyle;elbow=vertical;exitX=0.5;exitY=0;exitDx=0;exitDy=0;entryX=0.5;entryY=1;entryDx=0;entryDy=0;" parent="WIyWlLk6GJQsqaUBKTNV-1" source="HFHsffIfDSOll9k_3SCo-150" edge="1">
          <mxGeometry width="160" relative="1" as="geometry">
            <mxPoint x="616.5" y="679.9999999999999" as="sourcePoint" />
            <mxPoint x="452" y="566" as="targetPoint" />
          </mxGeometry>
        </mxCell>
        <mxCell id="HFHsffIfDSOll9k_3SCo-155" value="Motocicleta" style="swimlane;fontStyle=1;align=center;verticalAlign=top;childLayout=stackLayout;horizontal=1;startSize=26;horizontalStack=0;resizeParent=1;resizeLast=0;collapsible=1;marginBottom=0;rounded=0;shadow=0;strokeWidth=1;fillColor=#fff2cc;strokeColor=#d6b656;" parent="WIyWlLk6GJQsqaUBKTNV-1" vertex="1">
          <mxGeometry x="374" y="661" width="160" height="112" as="geometry">
            <mxRectangle x="550" y="140" width="160" height="26" as="alternateBounds" />
          </mxGeometry>
        </mxCell>
        <mxCell id="HFHsffIfDSOll9k_3SCo-156" value="- cilindrada: int" style="text;align=left;verticalAlign=top;spacingLeft=4;spacingRight=4;overflow=hidden;rotatable=0;points=[[0,0.5],[1,0.5]];portConstraint=eastwest;rounded=0;shadow=0;html=0;fillColor=#fff2cc;strokeColor=#d6b656;fontStyle=1;fontSize=11;" parent="HFHsffIfDSOll9k_3SCo-155" vertex="1">
          <mxGeometry y="26" width="160" height="26" as="geometry" />
        </mxCell>
        <mxCell id="HFHsffIfDSOll9k_3SCo-157" value="" style="line;html=1;strokeWidth=1;align=left;verticalAlign=middle;spacingTop=-1;spacingLeft=3;spacingRight=3;rotatable=0;labelPosition=right;points=[];portConstraint=eastwest;fillColor=#fff2cc;strokeColor=#d6b656;fontStyle=1;fontSize=11;" parent="HFHsffIfDSOll9k_3SCo-155" vertex="1">
          <mxGeometry y="52" width="160" height="8" as="geometry" />
        </mxCell>
        <mxCell id="HFHsffIfDSOll9k_3SCo-158" value="+ informacao(): String" style="text;align=left;verticalAlign=top;spacingLeft=4;spacingRight=4;overflow=hidden;rotatable=0;points=[[0,0.5],[1,0.5]];portConstraint=eastwest;fillColor=#fff2cc;strokeColor=#d6b656;fontStyle=1;fontSize=11;" parent="HFHsffIfDSOll9k_3SCo-155" vertex="1">
          <mxGeometry y="60" width="160" height="26" as="geometry" />
        </mxCell>
        <mxCell id="LRiYl04Xl2Js4U6MRnPi-3" value="+ cilindrada(valor: int): void" style="text;align=left;verticalAlign=top;spacingLeft=4;spacingRight=4;overflow=hidden;rotatable=0;points=[[0,0.5],[1,0.5]];portConstraint=eastwest;fillColor=#fff2cc;strokeColor=#d6b656;fontStyle=1;fontSize=11;" vertex="1" parent="HFHsffIfDSOll9k_3SCo-155">
          <mxGeometry y="86" width="160" height="26" as="geometry" />
        </mxCell>
        <mxCell id="HFHsffIfDSOll9k_3SCo-159" value="&lt;&lt; Interface &gt;&gt;&#xa;Empresa" style="swimlane;fontStyle=3;align=center;verticalAlign=top;childLayout=stackLayout;horizontal=1;startSize=40;horizontalStack=0;resizeParent=1;resizeLast=0;collapsible=1;marginBottom=0;rounded=0;shadow=0;strokeWidth=1;fillColor=#fff2cc;strokeColor=#d6b656;" parent="WIyWlLk6GJQsqaUBKTNV-1" vertex="1">
          <mxGeometry x="1176" y="398" width="216" height="154" as="geometry">
            <mxRectangle x="230" y="140" width="160" height="26" as="alternateBounds" />
          </mxGeometry>
        </mxCell>
        <mxCell id="HFHsffIfDSOll9k_3SCo-160" value="" style="line;html=1;strokeWidth=1;align=left;verticalAlign=middle;spacingTop=-1;spacingLeft=3;spacingRight=3;rotatable=0;labelPosition=right;points=[];portConstraint=eastwest;fillColor=#fff2cc;strokeColor=#d6b656;fontStyle=1;fontSize=11;" parent="HFHsffIfDSOll9k_3SCo-159" vertex="1">
          <mxGeometry y="40" width="216" height="8" as="geometry" />
        </mxCell>
        <mxCell id="LRiYl04Xl2Js4U6MRnPi-20" value="+ set_razao_social (nome: String): void" style="text;align=left;verticalAlign=top;spacingLeft=4;spacingRight=4;overflow=hidden;rotatable=0;points=[[0,0.5],[1,0.5]];portConstraint=eastwest;fillColor=#fff2cc;strokeColor=#d6b656;fontStyle=1;fontSize=11;" vertex="1" parent="HFHsffIfDSOll9k_3SCo-159">
          <mxGeometry y="48" width="216" height="28" as="geometry" />
        </mxCell>
        <mxCell id="LRiYl04Xl2Js4U6MRnPi-21" value="+ get_razao_social(): String" style="text;align=left;verticalAlign=top;spacingLeft=4;spacingRight=4;overflow=hidden;rotatable=0;points=[[0,0.5],[1,0.5]];portConstraint=eastwest;fillColor=#fff2cc;strokeColor=#d6b656;fontStyle=1;fontSize=11;" vertex="1" parent="HFHsffIfDSOll9k_3SCo-159">
          <mxGeometry y="76" width="216" height="26" as="geometry" />
        </mxCell>
        <mxCell id="LRiYl04Xl2Js4U6MRnPi-22" value="+ set_cnpj(cnpj: String): void" style="text;align=left;verticalAlign=top;spacingLeft=4;spacingRight=4;overflow=hidden;rotatable=0;points=[[0,0.5],[1,0.5]];portConstraint=eastwest;fillColor=#fff2cc;strokeColor=#d6b656;fontStyle=1;fontSize=11;" vertex="1" parent="HFHsffIfDSOll9k_3SCo-159">
          <mxGeometry y="102" width="216" height="26" as="geometry" />
        </mxCell>
        <mxCell id="LRiYl04Xl2Js4U6MRnPi-23" value="+ get_cnpj): String" style="text;align=left;verticalAlign=top;spacingLeft=4;spacingRight=4;overflow=hidden;rotatable=0;points=[[0,0.5],[1,0.5]];portConstraint=eastwest;fillColor=#fff2cc;strokeColor=#d6b656;fontStyle=1;fontSize=11;" vertex="1" parent="HFHsffIfDSOll9k_3SCo-159">
          <mxGeometry y="128" width="216" height="26" as="geometry" />
        </mxCell>
        <mxCell id="HFHsffIfDSOll9k_3SCo-163" value="&lt;&lt; Class &gt;&gt;&#xa;Locadora" style="swimlane;fontStyle=3;align=center;verticalAlign=top;childLayout=stackLayout;horizontal=1;startSize=40;horizontalStack=0;resizeParent=1;resizeLast=0;collapsible=1;marginBottom=0;rounded=0;shadow=0;strokeWidth=1;fillColor=#fff2cc;strokeColor=#d6b656;" parent="WIyWlLk6GJQsqaUBKTNV-1" vertex="1">
          <mxGeometry x="872" y="334" width="226" height="282" as="geometry">
            <mxRectangle x="230" y="140" width="160" height="26" as="alternateBounds" />
          </mxGeometry>
        </mxCell>
        <mxCell id="HFHsffIfDSOll9k_3SCo-164" value="- razao_social: String" style="text;align=left;verticalAlign=top;spacingLeft=4;spacingRight=4;overflow=hidden;rotatable=0;points=[[0,0.5],[1,0.5]];portConstraint=eastwest;fillColor=#fff2cc;strokeColor=#d6b656;fontStyle=1;fontSize=11;" parent="HFHsffIfDSOll9k_3SCo-163" vertex="1">
          <mxGeometry y="40" width="226" height="26" as="geometry" />
        </mxCell>
        <mxCell id="LRiYl04Xl2Js4U6MRnPi-13" value="- cnpj: String" style="text;align=left;verticalAlign=top;spacingLeft=4;spacingRight=4;overflow=hidden;rotatable=0;points=[[0,0.5],[1,0.5]];portConstraint=eastwest;fillColor=#fff2cc;strokeColor=#d6b656;fontStyle=1;fontSize=11;" vertex="1" parent="HFHsffIfDSOll9k_3SCo-163">
          <mxGeometry y="66" width="226" height="26" as="geometry" />
        </mxCell>
        <mxCell id="LRiYl04Xl2Js4U6MRnPi-14" value="- veiculo: List [Veiculo]" style="text;align=left;verticalAlign=top;spacingLeft=4;spacingRight=4;overflow=hidden;rotatable=0;points=[[0,0.5],[1,0.5]];portConstraint=eastwest;fillColor=#fff2cc;strokeColor=#d6b656;fontStyle=1;fontSize=11;" vertex="1" parent="HFHsffIfDSOll9k_3SCo-163">
          <mxGeometry y="92" width="226" height="26" as="geometry" />
        </mxCell>
        <mxCell id="HFHsffIfDSOll9k_3SCo-165" value="" style="line;html=1;strokeWidth=1;align=left;verticalAlign=middle;spacingTop=-1;spacingLeft=3;spacingRight=3;rotatable=0;labelPosition=right;points=[];portConstraint=eastwest;fillColor=#fff2cc;strokeColor=#d6b656;fontStyle=1;fontSize=11;" parent="HFHsffIfDSOll9k_3SCo-163" vertex="1">
          <mxGeometry y="118" width="226" height="8" as="geometry" />
        </mxCell>
        <mxCell id="HFHsffIfDSOll9k_3SCo-166" value="+ set_razao_social (nome: String): void" style="text;align=left;verticalAlign=top;spacingLeft=4;spacingRight=4;overflow=hidden;rotatable=0;points=[[0,0.5],[1,0.5]];portConstraint=eastwest;fillColor=#fff2cc;strokeColor=#d6b656;fontStyle=1;fontSize=11;" parent="HFHsffIfDSOll9k_3SCo-163" vertex="1">
          <mxGeometry y="126" width="226" height="26" as="geometry" />
        </mxCell>
        <mxCell id="HFHsffIfDSOll9k_3SCo-167" value="+ get_razao_social(): String" style="text;align=left;verticalAlign=top;spacingLeft=4;spacingRight=4;overflow=hidden;rotatable=0;points=[[0,0.5],[1,0.5]];portConstraint=eastwest;fillColor=#fff2cc;strokeColor=#d6b656;fontStyle=1;fontSize=11;" parent="HFHsffIfDSOll9k_3SCo-163" vertex="1">
          <mxGeometry y="152" width="226" height="26" as="geometry" />
        </mxCell>
        <mxCell id="LRiYl04Xl2Js4U6MRnPi-5" value="+ set_cnpj(cnpj: String): void" style="text;align=left;verticalAlign=top;spacingLeft=4;spacingRight=4;overflow=hidden;rotatable=0;points=[[0,0.5],[1,0.5]];portConstraint=eastwest;fillColor=#fff2cc;strokeColor=#d6b656;fontStyle=1;fontSize=11;" vertex="1" parent="HFHsffIfDSOll9k_3SCo-163">
          <mxGeometry y="178" width="226" height="26" as="geometry" />
        </mxCell>
        <mxCell id="LRiYl04Xl2Js4U6MRnPi-6" value="+ get_cnpj): String" style="text;align=left;verticalAlign=top;spacingLeft=4;spacingRight=4;overflow=hidden;rotatable=0;points=[[0,0.5],[1,0.5]];portConstraint=eastwest;fillColor=#fff2cc;strokeColor=#d6b656;fontStyle=1;fontSize=11;" vertex="1" parent="HFHsffIfDSOll9k_3SCo-163">
          <mxGeometry y="204" width="226" height="26" as="geometry" />
        </mxCell>
        <mxCell id="LRiYl04Xl2Js4U6MRnPi-8" value="+ get_veiculo(): String" style="text;align=left;verticalAlign=top;spacingLeft=4;spacingRight=4;overflow=hidden;rotatable=0;points=[[0,0.5],[1,0.5]];portConstraint=eastwest;fillColor=#fff2cc;strokeColor=#d6b656;fontStyle=1;fontSize=11;" vertex="1" parent="HFHsffIfDSOll9k_3SCo-163">
          <mxGeometry y="230" width="226" height="26" as="geometry" />
        </mxCell>
        <mxCell id="LRiYl04Xl2Js4U6MRnPi-7" value="+ set_veiculo(veiculo: Veiculo): void" style="text;align=left;verticalAlign=top;spacingLeft=4;spacingRight=4;overflow=hidden;rotatable=0;points=[[0,0.5],[1,0.5]];portConstraint=eastwest;fillColor=#fff2cc;strokeColor=#d6b656;fontStyle=1;fontSize=11;" vertex="1" parent="HFHsffIfDSOll9k_3SCo-163">
          <mxGeometry y="256" width="226" height="26" as="geometry" />
        </mxCell>
        <mxCell id="HFHsffIfDSOll9k_3SCo-169" value="&lt;&lt; Abstract Class &gt;&gt;&#xa;Veiculo" style="swimlane;fontStyle=3;align=center;verticalAlign=top;childLayout=stackLayout;horizontal=1;startSize=40;horizontalStack=0;resizeParent=1;resizeLast=0;collapsible=1;marginBottom=0;rounded=0;shadow=0;strokeWidth=1;fillColor=#FFF2CC;strokeColor=#d6b656;swimlaneFillColor=none;" parent="WIyWlLk6GJQsqaUBKTNV-1" vertex="1">
          <mxGeometry x="360" y="288" width="190" height="278" as="geometry">
            <mxRectangle x="230" y="140" width="160" height="26" as="alternateBounds" />
          </mxGeometry>
        </mxCell>
        <mxCell id="HFHsffIfDSOll9k_3SCo-170" value="- modelo: String" style="text;align=left;verticalAlign=top;spacingLeft=4;spacingRight=4;overflow=hidden;rotatable=0;points=[[0,0.5],[1,0.5]];portConstraint=eastwest;rounded=0;shadow=0;html=0;fillColor=#fff2cc;strokeColor=#d6b656;fontSize=11;fontStyle=1" parent="HFHsffIfDSOll9k_3SCo-169" vertex="1">
          <mxGeometry y="40" width="190" height="26" as="geometry" />
        </mxCell>
        <mxCell id="HFHsffIfDSOll9k_3SCo-171" value="- marca: String" style="text;align=left;verticalAlign=top;spacingLeft=4;spacingRight=4;overflow=hidden;rotatable=0;points=[[0,0.5],[1,0.5]];portConstraint=eastwest;fillColor=#fff2cc;strokeColor=#d6b656;fontSize=11;fontStyle=1" parent="HFHsffIfDSOll9k_3SCo-169" vertex="1">
          <mxGeometry y="66" width="190" height="26" as="geometry" />
        </mxCell>
        <mxCell id="HFHsffIfDSOll9k_3SCo-172" value="- diaria: float" style="text;align=left;verticalAlign=top;spacingLeft=4;spacingRight=4;overflow=hidden;rotatable=0;points=[[0,0.5],[1,0.5]];portConstraint=eastwest;rounded=0;shadow=0;html=0;fillColor=#fff2cc;strokeColor=#d6b656;fontSize=11;fontStyle=1" parent="HFHsffIfDSOll9k_3SCo-169" vertex="1">
          <mxGeometry y="92" width="190" height="26" as="geometry" />
        </mxCell>
        <mxCell id="HFHsffIfDSOll9k_3SCo-173" value="- ano: int" style="text;align=left;verticalAlign=top;spacingLeft=4;spacingRight=4;overflow=hidden;rotatable=0;points=[[0,0.5],[1,0.5]];portConstraint=eastwest;rounded=0;shadow=0;html=0;fillColor=#fff2cc;strokeColor=#d6b656;fontSize=11;fontStyle=1" parent="HFHsffIfDSOll9k_3SCo-169" vertex="1">
          <mxGeometry y="118" width="190" height="22" as="geometry" />
        </mxCell>
        <mxCell id="HFHsffIfDSOll9k_3SCo-174" value="- disponivel: bool" style="text;align=left;verticalAlign=top;spacingLeft=4;spacingRight=4;overflow=hidden;rotatable=0;points=[[0,0.5],[1,0.5]];portConstraint=eastwest;rounded=0;shadow=0;html=0;fillColor=#fff2cc;strokeColor=#d6b656;fontSize=11;fontStyle=1" parent="HFHsffIfDSOll9k_3SCo-169" vertex="1">
          <mxGeometry y="140" width="190" height="26" as="geometry" />
        </mxCell>
        <mxCell id="HFHsffIfDSOll9k_3SCo-175" value="" style="line;html=1;strokeWidth=1;align=left;verticalAlign=middle;spacingTop=-1;spacingLeft=3;spacingRight=3;rotatable=0;labelPosition=right;points=[];portConstraint=eastwest;fillColor=#fff2cc;strokeColor=#d6b656;fontSize=11;fontStyle=1;labelBackgroundColor=default;shadow=1;" parent="HFHsffIfDSOll9k_3SCo-169" vertex="1">
          <mxGeometry y="166" width="190" height="8" as="geometry" />
        </mxCell>
        <mxCell id="HFHsffIfDSOll9k_3SCo-176" value="+ informacao(): String" style="text;align=left;verticalAlign=top;spacingLeft=4;spacingRight=4;overflow=hidden;rotatable=0;points=[[0,0.5],[1,0.5]];portConstraint=eastwest;fillColor=#fff2cc;strokeColor=#d6b656;fontSize=11;fontStyle=1" parent="HFHsffIfDSOll9k_3SCo-169" vertex="1">
          <mxGeometry y="174" width="190" height="26" as="geometry" />
        </mxCell>
        <mxCell id="LRiYl04Xl2Js4U6MRnPi-1" value="+ verificar_disponibilidade(): bool" style="text;align=left;verticalAlign=top;spacingLeft=4;spacingRight=4;overflow=hidden;rotatable=0;points=[[0,0.5],[1,0.5]];portConstraint=eastwest;fillColor=#fff2cc;strokeColor=#d6b656;fontSize=11;fontStyle=1" vertex="1" parent="HFHsffIfDSOll9k_3SCo-169">
          <mxGeometry y="200" width="190" height="26" as="geometry" />
        </mxCell>
        <mxCell id="HFHsffIfDSOll9k_3SCo-177" value="+ aluguel(): String" style="text;align=left;verticalAlign=top;spacingLeft=4;spacingRight=4;overflow=hidden;rotatable=0;points=[[0,0.5],[1,0.5]];portConstraint=eastwest;fillColor=#fff2cc;strokeColor=#d6b656;fontSize=11;fontStyle=1" parent="HFHsffIfDSOll9k_3SCo-169" vertex="1">
          <mxGeometry y="226" width="190" height="26" as="geometry" />
        </mxCell>
        <mxCell id="HFHsffIfDSOll9k_3SCo-178" value="+ devolucao(): String" style="text;align=left;verticalAlign=top;spacingLeft=4;spacingRight=4;overflow=hidden;rotatable=0;points=[[0,0.5],[1,0.5]];portConstraint=eastwest;fillColor=#fff2cc;strokeColor=#d6b656;fontSize=11;fontStyle=1" parent="HFHsffIfDSOll9k_3SCo-169" vertex="1">
          <mxGeometry y="252" width="190" height="26" as="geometry" />
        </mxCell>
        <mxCell id="HFHsffIfDSOll9k_3SCo-179" value="" style="endArrow=none;html=1;edgeStyle=orthogonalEdgeStyle;rounded=0;exitX=1;exitY=0.5;exitDx=0;exitDy=0;" parent="WIyWlLk6GJQsqaUBKTNV-1" source="HFHsffIfDSOll9k_3SCo-173" edge="1">
          <mxGeometry relative="1" as="geometry">
            <mxPoint x="560" y="417.58" as="sourcePoint" />
            <mxPoint x="870" y="417" as="targetPoint" />
          </mxGeometry>
        </mxCell>
        <mxCell id="LRiYl04Xl2Js4U6MRnPi-25" value="" style="endArrow=block;endSize=10;endFill=0;shadow=0;strokeWidth=1;rounded=0;curved=0;edgeStyle=elbowEdgeStyle;elbow=vertical;dashed=1;fontStyle=1;fontSize=11;entryX=0;entryY=0.5;entryDx=0;entryDy=0;" edge="1" parent="WIyWlLk6GJQsqaUBKTNV-1" target="LRiYl04Xl2Js4U6MRnPi-21">
          <mxGeometry width="160" relative="1" as="geometry">
            <mxPoint x="1100" y="486" as="sourcePoint" />
            <mxPoint x="1238" y="676" as="targetPoint" />
            <Array as="points" />
          </mxGeometry>
        </mxCell>
      </root>
    </mxGraphModel>
  </diagram>
</mxfile>
